<?xml version="1.0" encoding="UTF-8"?>
<svg width="24px" height="24px" viewBox="0 0 24 24" version="1.1" xmlns="http://www.w3.org/2000/svg" xmlns:xlink="http://www.w3.org/1999/xlink">
    <title>24-2PX/操作/加号</title>
    <g id="24-2PX/操作/加号" stroke="none" stroke-width="1" fill="none" fill-rule="evenodd">
        <path d="M12,2 C12.5522847,2 13,2.44771525 13,3 L13,11 L21,11 C21.5522847,11 22,11.4477153 22,12 C22,12.5522847 21.5522847,13 21,13 L13,13 L13,21 C13,21.5522847 12.5522847,22 12,22 C11.4477153,22 11,21.5522847 11,21 L11,13 L3,13 C2.44771525,13 2,12.5522847 2,12 C2,11.4477153 2.44771525,11 3,11 L11,11 L11,3 C11,2.44771525 11.4477153,2 12,2 Z" id="添加" fill="#585F66" fill-rule="nonzero"></path>
    </g>
</svg>