<?xml version="1.0" encoding="UTF-8"?>
<svg width="24px" height="24px" viewBox="0 0 24 24" version="1.1" xmlns="http://www.w3.org/2000/svg" xmlns:xlink="http://www.w3.org/1999/xlink">
    <title>24-2PX/圆角/导航/更多</title>
    <g id="24-2PX/圆角/导航/更多" stroke="none" stroke-width="1" fill="none" fill-rule="evenodd">
        <path d="M6.5,10 C7.32842712,10 8,10.6715729 8,11.5 C8,12.3284271 7.32842712,13 6.5,13 C5.67157288,13 5,12.3284271 5,11.5 C5,10.6715729 5.67157288,10 6.5,10 Z M12.5,10 C13.3284271,10 14,10.6715729 14,11.5 C14,12.3284271 13.3284271,13 12.5,13 C11.6715729,13 11,12.3284271 11,11.5 C11,10.6715729 11.6715729,10 12.5,10 Z M18.5,10 C19.3284271,10 20,10.6715729 20,11.5 C20,12.3284271 19.3284271,13 18.5,13 C17.6715729,13 17,12.3284271 17,11.5 C17,10.6715729 17.6715729,10 18.5,10 Z" id="形状结合" fill="#1A1A1A" fill-rule="nonzero"></path>
    </g>
</svg>