<?xml version="1.0" encoding="UTF-8"?>
<svg width="24px" height="24px" viewBox="0 0 24 24" version="1.1" xmlns="http://www.w3.org/2000/svg" xmlns:xlink="http://www.w3.org/1999/xlink">
    <title>24-2PX/圆角/状态/关闭</title>
    <g id="24-2PX/圆角/状态/关闭" stroke="none" stroke-width="1" fill="none" fill-rule="evenodd">
        <path d="M19.7781746,4.22182541 C20.1686989,4.6123497 20.1686989,5.24551468 19.7781746,5.63603897 L13.4142136,12 L19.7781746,18.363961 C20.1686989,18.7544853 20.1686989,19.3876503 19.7781746,19.7781746 C19.3876503,20.1686989 18.7544853,20.1686989 18.363961,19.7781746 L12,13.4142136 L5.63603897,19.7781746 C5.24551468,20.1686989 4.6123497,20.1686989 4.22182541,19.7781746 C3.83130112,19.3876503 3.83130112,18.7544853 4.22182541,18.363961 L10.5857864,12 L4.22182541,5.63603897 C3.83130112,5.24551468 3.83130112,4.6123497 4.22182541,4.22182541 C4.6123497,3.83130112 5.24551468,3.83130112 5.63603897,4.22182541 L12,10.5857864 L18.363961,4.22182541 C18.7544853,3.83130112 19.3876503,3.83130112 19.7781746,4.22182541 Z" id="路径" fill="#ffffff" fill-rule="nonzero"></path>
    </g>
</svg>